<?xml version="1.0" encoding="UTF-8" standalone="no"?>
<!-- Created with Inkscape (http://www.inkscape.org/) -->

<svg
   version="1.1"
   id="svg2"
   width="512px"
   height="400px"
   viewBox="-50 50 512 450"
   sodipodi:docname="S-RMCITY-PMS302C.eps"
   xmlns:inkscape="http://www.inkscape.org/namespaces/inkscape"
   xmlns:sodipodi="http://sodipodi.sourceforge.net/DTD/sodipodi-0.dtd"
   xmlns="http://www.w3.org/2000/svg"
   xmlns:svg="http://www.w3.org/2000/svg">
  <defs
     id="defs6" />
  <sodipodi:namedview
     id="namedview4"
     pagecolor="#ffffff"
     bordercolor="#000000"
     borderopacity="0.25"
     inkscape:showpageshadow="2"
     inkscape:pageopacity="0.0"
     inkscape:pagecheckerboard="0"
     inkscape:deskcolor="#d1d1d1" />
  <g
     id="g8"
     inkscape:groupmode="layer"
     inkscape:label="ink_ext_XXXXXX"
     transform="matrix(1.3333333,0,0,-1.3333333,-170.66667,512)">
    <g
       id="g10"
       transform="scale(0.1)">
      <path
         d="m 2454.56,2127.21 c 0,5.74 2.87,9.55 7.63,11.46 9.56,2.87 35.32,5.73 63.98,5.73 102.16,0 165.18,-71.61 165.18,-190.97 0,-72.57 -24.83,-124.11 -58.24,-147.03 -21.98,-15.28 -48.69,-18.14 -71.61,-18.14 -42.02,0 -85.94,6.68 -100.27,15.27 -4.77,2.87 -6.67,6.68 -6.67,11.47 v 312.21 z m -76.39,-397.18 c 0,-91.66 2.14,-292.15 -2.93,-332.22 -3.5,-27.7 -8.62,-48.57 -27.69,-52.5 -8.6,-1.77 -20.05,-3.82 -28.64,-3.82 -2.68,0 -4.5,-0.6 -5.71,-1.57 -86.12,115.66 -137.12,258.99 -137.12,414.23 0,152.16 49.05,292.94 132.08,407.37 8.86,-0.29 20.81,-1.24 27.04,-2.8 31.52,-6.68 39.15,-21.96 41.06,-54.42 1.91,-30.57 1.91,-57.29 1.91,-206.25 v -168.02 z m 112.27,-557.01 c -64.27,42.14 -121.16,94.61 -168.24,155.11 1.33,-0.09 2.76,-0.16 4.36,-0.16 28.64,0 88.79,2.86 89.74,2.86 4.77,0 64.93,-2.86 117.44,-2.86 10.51,0 15.27,3.02 15.27,7.8 0,2.86 -1.9,5.72 -7.63,5.72 -8.6,0 -29.59,2.01 -42.97,3.82 -28.61,3.89 -34.14,24.87 -37.23,52.5 -4.51,40.13 -6.62,240.53 -6.62,332.22 v 22.91 c 0,4.77 1.9,7.63 6.67,7.63 l 117.45,-1.9 c 5.74,0 9.06,-1.55 12.39,-5.73 19.57,-24.44 271.42,-403.78 311.41,-456.32 54.47,-71.52 87.89,-118.37 128.91,-140.36 24.79,-13.28 48.69,-18.28 102.15,-18.28 h 57.24 c -95.86,-49.94 -204.75,-78.24 -320.29,-78.24 -131.7,0 -254.83,36.74 -359.74,100.47 m 772.51,1152.31 c -2.44,-2.77 -4.44,-6.77 -6.34,-11.3 l -303.88,-729.54 -196.18,285.31 c -12.14,-23.66 -28.61,-44.94 -53.22,-71.21 61.15,-93.63 231.26,-332.67 231.26,-332.67 8.58,0 13.84,7.72 31.51,50.77 l 257.12,626.42 h 2.86 l 32.05,-705.02 c 0.78,-17.21 0.94,-33.4 -3.82,-34.35 -4.79,-0.97 -6.71,-2.89 -6.71,-6.7 0,-4.76 4.8,-7.73 26.75,-9.54 32.7,-2.71 123.58,-5.44 153.5,-5.83 -59.61,-89.16 -139.27,-163.78 -232.58,-217.35 -5.78,0 -19.14,0.01 -37.16,2.86 -23.84,3.76 -65.14,14.17 -116.49,68.74 -55.53,59 -327.62,459.16 -405.91,559.41 85.93,79.27 115.53,149.91 115.53,220.57 0,65.87 -42.01,112.66 -65.88,129.86 -50.6,36.26 -114.6,42 -174.73,42 -29.6,0 -102.16,-2.87 -112.67,-2.87 -4.48,0 -58.02,2.55 -100.12,2.85 126.88,166.3 327.07,273.62 552.34,273.62 154.6,0 297.37,-50.57 412.77,-136.03 z m 19.46,-21.8 c -0.18,2.69 -0.42,5.18 -0.7,7.42 160.12,-127.22 262.86,-323.64 262.86,-543.99 0,-136.75 -39.56,-264.23 -107.85,-371.71 -12.31,0.33 -31.68,1.82 -52.57,8.49 -41.11,13.09 -49.41,66.7 -51.56,101.2 l -50.18,798.59 z m -432.23,218.56 c 416.96,0 755.14,-338.17 755.14,-755.13 0,-416.97 -338.18,-755.138 -755.14,-755.138 -416.97,0 -755.13,338.168 -755.13,755.138 0,416.96 338.16,755.13 755.13,755.13 z m 0,10.72 c 422.89,0 765.85,-342.95 765.85,-765.85 0,-422.9 -342.96,-765.861 -765.85,-765.861 -422.91,0 -765.85,342.961 -765.85,765.861 0,422.9 342.94,765.85 765.85,765.85 z m 0,-37.56 c 402.16,0 728.3,-326.14 728.3,-728.29 0,-402.16 -326.14,-728.3 -728.3,-728.3 -402.16,0 -728.3,326.14 -728.3,728.3 0,402.15 326.14,728.29 728.3,728.29 v 0"
         style="fill:#193958;fill-opacity:1;fill-rule:evenodd;stroke:none"
         id="path12" />
      <path
         d="m 1355.27,724.32 c 0,-3.64 0.67,-4.949 2.98,-5.949 6.93,-2.312 16.83,-3.301 25.08,-3.301 13.2,0 17.49,1.321 23.43,5.61 9.91,7.269 19.48,22.449 19.48,49.531 0,46.891 -31.03,60.43 -50.5,60.43 -8.25,0 -14.19,-0.332 -17.49,-1.321 -2.31,-0.66 -2.98,-1.98 -2.98,-4.621 z m -38.94,26.078 c 0,50.204 0,59.434 -0.66,70 -0.66,11.231 -3.3,16.512 -14.19,18.832 -2.64,0.649 -8.25,0.981 -12.88,0.981 -3.62,0 -5.61,0.668 -5.61,2.969 0,2.32 2.32,2.98 7.26,2.98 17.5,0 38.29,-0.988 45.22,-0.988 11.22,0 36.31,0.988 46.54,0.988 20.79,0 42.91,-1.98 60.73,-14.199 9.24,-6.281 22.44,-23.109 22.44,-45.231 0,-24.441 -10.23,-46.898 -43.56,-73.968 29.37,-36.981 52.14,-66.371 71.62,-86.84 18.48,-19.152 32.01,-21.473 36.96,-22.453 3.63,-0.668 6.6,-1 9.24,-1 2.64,0 3.96,-0.989 3.96,-2.637 0,-2.641 -2.31,-3.301 -6.27,-3.301 h -31.35 c -18.49,0 -26.74,1.649 -35.32,6.27 -14.19,7.597 -26.73,23.121 -45.22,48.539 -13.19,18.16 -28.38,40.609 -32.67,45.57 -1.65,1.981 -3.63,2.309 -5.94,2.309 l -28.71,0.66 c -1.66,0 -2.65,-0.66 -2.65,-2.641 v -4.617 c 0,-30.723 0,-56.801 1.65,-70.672 1,-9.57 2.98,-16.828 12.88,-18.16 4.95,-0.66 12.21,-1.32 16.17,-1.32 2.64,0 3.96,-0.989 3.96,-2.637 0,-2.312 -2.31,-3.301 -6.6,-3.301 -19.15,0 -43.56,0.989 -48.52,0.989 -6.27,0 -27.06,-0.989 -40.26,-0.989 -4.3,0 -6.61,0.989 -6.61,3.301 0,1.648 1.33,2.637 5.29,2.637 4.95,0 8.91,0.66 11.88,1.32 6.6,1.332 8.25,8.59 9.57,18.16 1.65,13.871 1.65,39.949 1.65,70.34 v 58.109"
         style="fill:#193958;fill-opacity:1;fill-rule:nonzero;stroke:none"
         id="path14" />
      <path
         d="m 1722.58,697.262 c 0,62.75 -36.12,101.687 -82.04,101.687 -32.21,0 -68.88,-17.929 -68.88,-87.687 0,-58.274 32.2,-104.492 85.96,-104.492 19.6,0 64.96,9.519 64.96,90.492 z m -189.56,5.32 c 0,47.898 31.64,109.809 115.64,109.809 69.71,0 113.12,-40.61 113.12,-104.77 0,-64.152 -44.8,-114.871 -115.93,-114.871 -80.35,0 -112.83,60.238 -112.83,109.832"
         style="fill:#193958;fill-opacity:1;fill-rule:nonzero;stroke:none"
         id="path16" />
      <path
         d="m 1832.62,623.289 c -27.44,24.09 -34.72,55.473 -34.72,82.652 0,19.047 5.87,52.11 32.75,76.758 20.17,18.492 46.77,29.692 88.49,29.692 17.35,0 27.72,-1.11 40.6,-2.801 10.64,-1.399 19.6,-3.918 27.99,-4.758 3.09,-0.281 4.2,-1.684 4.2,-3.371 0,-2.231 -0.84,-5.59 -1.4,-15.402 -0.55,-9.239 -0.28,-24.649 -0.84,-30.258 -0.28,-4.199 -0.84,-6.43 -3.36,-6.43 -2.24,0 -2.79,2.231 -2.79,6.16 -0.29,8.68 -3.93,18.481 -10.93,25.77 -9.24,9.801 -31.08,17.371 -56.83,17.371 -24.36,0 -40.33,-6.172 -52.65,-17.371 -20.43,-18.77 -25.76,-45.379 -25.76,-72.563 0,-66.679 50.69,-99.738 88.21,-99.738 24.91,0 40.04,2.809 51.24,15.699 4.75,5.321 8.39,13.442 9.51,18.481 0.84,4.492 1.4,5.609 3.65,5.609 1.95,0 2.52,-1.957 2.52,-4.199 0,-3.371 -3.36,-27.738 -6.17,-37.27 -1.39,-4.761 -2.52,-6.16 -7.28,-8.121 -11.19,-4.48 -32.48,-6.449 -50.4,-6.449 -38.36,0 -70.55,8.41 -96.03,30.539"
         style="fill:#193958;fill-opacity:1;fill-rule:nonzero;stroke:none"
         id="path18" />
      <path
         d="m 2086.29,714.898 h 1.4 c 9.52,10.372 50.4,52.114 58.52,61.633 7.84,9.25 14,16.25 14,21.02 0,3.07 -1.12,5.039 -3.92,5.597 -2.52,0.563 -3.64,1.122 -3.64,2.813 0,1.949 1.4,2.519 4.48,2.519 5.88,0 21.28,-0.839 28.84,-0.839 8.68,0 24.08,0.839 32.76,0.839 2.8,0 4.76,-0.57 4.76,-2.519 0,-1.973 -1.4,-2.531 -4.2,-2.531 -3.92,0 -10.92,-1.121 -16.24,-3.078 -8.68,-3.364 -18.2,-9.25 -30.24,-21.012 -8.68,-8.399 -50.96,-50.43 -60.48,-60.508 10.08,-13.184 64.96,-72.293 75.88,-82.652 12.32,-11.77 24.92,-24.371 40.04,-30.25 8.4,-3.371 14,-4.211 17.36,-4.211 1.96,0 3.64,-0.559 3.64,-2.239 0,-1.96 -1.4,-2.8 -6.72,-2.8 h -24.36 c -8.4,0 -13.44,0 -19.32,0.558 -15.12,1.403 -22.68,7.563 -34.72,18.211 -12.32,10.93 -67.48,75.641 -73.36,83.77 l -3.08,4.203 h -1.4 v -25.5 c 0,-25.774 0,-47.902 0.84,-59.953 0.56,-7.84 3.08,-14.008 10.08,-15.129 3.92,-0.551 10.08,-1.121 13.72,-1.121 2.24,0 3.64,-0.84 3.64,-2.239 0,-1.96 -2.24,-2.8 -5.32,-2.8 -15.68,0 -33.32,0.84 -40.32,0.84 -6.44,0 -24.08,-0.84 -35.28,-0.84 -3.64,0 -5.6,0.84 -5.6,2.8 0,1.399 1.12,2.239 4.48,2.239 4.2,0 7.56,0.57 10.08,1.121 5.6,1.121 7,7.289 8.12,15.41 1.4,11.77 1.4,33.898 1.4,59.672 v 49.308 c 0,42.579 0,50.43 -0.56,59.391 -0.56,9.52 -2.8,14 -12.04,15.969 -2.24,0.558 -7,0.84 -10.92,0.84 -3.08,0 -4.76,0.558 -4.76,2.531 0,1.949 1.96,2.519 6.16,2.519 14.84,0 32.48,-0.839 39.2,-0.839 6.72,0 24.36,0.839 33.88,0.839 3.92,0 5.88,-0.57 5.88,-2.519 0,-1.973 -1.68,-2.531 -3.92,-2.531 -2.8,0 -4.48,-0.282 -7.84,-0.84 -7.56,-1.399 -9.8,-6.16 -10.36,-15.969 -0.56,-8.961 -0.56,-16.812 -0.56,-59.391 v -12.332"
         style="fill:#193958;fill-opacity:1;fill-rule:nonzero;stroke:none"
         id="path20" />
      <path
         d="m 2337.45,669.238 c 0,15.133 -2.8,21.293 -6.44,29.41 -1.96,4.481 -39.48,66.122 -49.28,80.692 -7,10.371 -14,17.371 -19.32,20.449 -3.64,1.961 -8.4,3.641 -11.76,3.641 -2.24,0 -4.2,0.558 -4.2,2.531 0,1.68 1.96,2.519 5.32,2.519 5.04,0 26.04,-0.839 35.28,-0.839 5.88,0 17.36,0.839 29.96,0.839 2.8,0 4.2,-0.839 4.2,-2.519 0,-1.691 -1.96,-1.973 -6.16,-3.09 -2.52,-0.562 -3.92,-2.801 -3.92,-5.039 0,-2.242 1.4,-5.602 3.36,-9.531 3.92,-8.403 43.12,-75.922 47.6,-83.762 2.8,6.723 38.08,68.352 42,77.043 2.8,6.156 3.92,10.918 3.92,14.559 0,2.808 -1.12,5.89 -5.88,7.007 -2.52,0.563 -5.04,1.122 -5.04,2.813 0,1.949 1.4,2.519 4.76,2.519 9.24,0 18.2,-0.839 26.32,-0.839 6.16,0 24.64,0.839 29.96,0.839 3.08,0 5.04,-0.57 5.04,-2.25 0,-1.96 -2.24,-2.8 -5.32,-2.8 -2.8,0 -8.12,-1.121 -12.32,-3.36 -5.88,-2.8 -8.96,-6.16 -15.12,-13.73 -9.24,-11.199 -48.44,-77.039 -53.48,-89.078 -4.2,-10.09 -4.2,-18.774 -4.2,-28.024 V 646.27 c 0,-4.481 0,-16.25 0.84,-28.02 0.56,-8.121 3.08,-14.289 11.48,-15.41 3.92,-0.551 10.08,-1.121 14,-1.121 3.08,0 4.48,-0.84 4.48,-2.239 0,-1.96 -2.24,-2.8 -5.88,-2.8 -17.64,0 -35.28,0.84 -42.84,0.84 -7,0 -24.64,-0.84 -35,-0.84 -3.92,0 -6.16,0.558 -6.16,2.8 0,1.399 1.4,2.239 4.48,2.239 3.92,0 7.28,0.57 9.8,1.121 5.6,1.121 8.12,7.289 8.68,15.41 0.84,11.77 0.84,23.539 0.84,28.02 v 22.968"
         style="fill:#193958;fill-opacity:1;fill-rule:nonzero;stroke:none"
         id="path22" />
      <path
         d="m 2592.28,832.141 c 0.95,5.379 2.85,8.23 5.38,8.23 2.53,0 4.42,-1.59 8.54,-9.82 l 86.35,-176.039 86.04,178.25 c 2.53,5.07 4.11,7.609 6.96,7.609 2.84,0 4.74,-3.172 5.69,-9.82 l 28.79,-193.77 c 2.85,-19.941 6.01,-29.121 15.5,-31.98 9.17,-2.852 15.5,-3.172 19.61,-3.172 2.84,0 5.06,-0.309 5.06,-2.207 0,-2.543 -3.8,-3.481 -8.23,-3.481 -7.9,0 -51.55,0.629 -64.21,1.579 -7.27,0.628 -9.17,1.582 -9.17,3.492 0,1.578 1.26,2.527 3.48,3.468 1.89,0.641 2.85,4.758 1.58,13.622 l -18.98,137.726 h -1.26 l -68.96,-141.207 c -7.28,-14.883 -8.85,-17.742 -11.71,-17.742 -2.84,0 -6,6.34 -11.07,15.832 -7.59,14.578 -32.57,63.008 -36.37,71.879 -2.85,6.648 -21.83,44.012 -32.9,67.75 h -1.26 l -16.45,-123.469 c -0.63,-5.711 -0.95,-9.82 -0.95,-14.891 0,-6.011 4.11,-8.859 9.49,-10.128 5.69,-1.262 10.12,-1.582 13.28,-1.582 2.53,0 4.75,-0.641 4.75,-2.219 0,-2.84 -2.85,-3.481 -7.59,-3.481 -13.29,0 -27.52,0.95 -33.22,0.95 -6.01,0 -21.19,-0.95 -31.31,-0.95 -3.16,0 -5.69,0.641 -5.69,3.481 0,1.578 1.89,2.219 5.06,2.219 2.53,0 4.74,0 9.49,0.949 8.86,1.902 11.38,14.25 12.97,25.011 l 31.31,203.911"
         style="fill:#193958;fill-opacity:1;fill-rule:nonzero;stroke:none"
         id="path24" />
      <path
         d="m 3057,697.262 c 0,62.75 -36.12,101.687 -82.04,101.687 -32.21,0 -68.89,-17.929 -68.89,-87.687 0,-58.274 32.21,-104.492 85.97,-104.492 19.6,0 64.96,9.519 64.96,90.492 z m -189.56,5.32 c 0,47.898 31.64,109.809 115.65,109.809 69.7,0 113.11,-40.61 113.11,-104.77 0,-64.152 -44.79,-114.871 -115.93,-114.871 -80.35,0 -112.83,60.238 -112.83,109.832"
         style="fill:#193958;fill-opacity:1;fill-rule:nonzero;stroke:none"
         id="path26" />
      <path
         d="m 3156.4,727.23 c 0,42.579 0,50.43 -0.56,59.391 -0.57,9.52 -2.81,14 -12.05,15.969 -2.24,0.558 -6.99,0.84 -10.92,0.84 -3.08,0 -4.75,0.558 -4.75,2.531 0,1.949 1.96,2.519 6.16,2.519 14.84,0 32.48,-0.839 40.88,-0.839 6.72,0 24.35,0.839 34.43,0.839 4.2,0 6.16,-0.57 6.16,-2.519 0,-1.973 -1.68,-2.531 -4.48,-2.531 -3.08,0 -4.76,-0.282 -8.12,-0.84 -7.55,-1.399 -9.79,-6.16 -10.36,-15.969 -0.55,-8.961 -0.55,-16.812 -0.55,-59.391 v -39.218 c 0,-40.633 8.11,-57.723 21.83,-68.922 12.61,-10.36 25.48,-11.481 35,-11.481 12.33,0 27.44,3.911 38.64,15.121 15.41,15.411 16.25,40.629 16.25,69.481 v 35.019 c 0,42.579 0,50.43 -0.56,59.391 -0.57,9.52 -2.8,14 -12.05,15.969 -2.23,0.558 -6.99,0.84 -10.08,0.84 -3.08,0 -4.76,0.558 -4.76,2.531 0,1.949 1.97,2.519 5.88,2.519 14.29,0 31.93,-0.839 32.2,-0.839 3.36,0 21.01,0.839 31.92,0.839 3.92,0 5.88,-0.57 5.88,-2.519 0,-1.973 -1.68,-2.531 -5.04,-2.531 -3.07,0 -4.75,-0.282 -8.11,-0.84 -7.56,-1.399 -9.81,-6.16 -10.37,-15.969 -0.55,-8.961 -0.55,-16.812 -0.55,-59.391 v -29.968 c 0,-31.114 -3.09,-64.16 -26.6,-84.332 -19.88,-17.09 -40.04,-20.18 -58.24,-20.18 -14.85,0 -41.72,0.84 -62.17,19.34 -14.28,12.879 -24.91,33.609 -24.91,74.242 v 40.898"
         style="fill:#193958;fill-opacity:1;fill-rule:nonzero;stroke:none"
         id="path28" />
      <path
         d="m 3433.59,634.781 c 0.57,-21.851 4.2,-29.14 9.81,-31.101 4.75,-1.68 10.08,-1.961 14.56,-1.961 3.08,0 4.75,-0.559 4.75,-2.239 0,-2.242 -2.51,-2.8 -6.44,-2.8 -18.19,0 -29.39,0.84 -34.71,0.84 -2.52,0 -15.68,-0.84 -30.24,-0.84 -3.64,0 -6.16,0.281 -6.16,2.8 0,1.68 1.68,2.239 4.48,2.239 3.64,0 8.68,0.281 12.6,1.402 7.27,2.238 8.39,10.367 8.68,34.738 l 2.52,165.012 c 0,5.609 0.84,9.52 3.63,9.52 3.09,0 5.61,-3.641 10.37,-8.68 3.36,-3.641 45.92,-48.473 86.8,-89.09 19.04,-19.039 56.83,-59.391 61.6,-63.871 h 1.4 l -2.81,125.781 c -0.27,17.09 -2.79,22.418 -9.51,25.219 -4.2,1.68 -10.93,1.68 -14.84,1.68 -3.36,0 -4.48,0.84 -4.48,2.531 0,2.23 3.07,2.519 7.27,2.519 14.57,0 28.01,-0.839 33.89,-0.839 3.07,0 13.72,0.839 27.44,0.839 3.63,0 6.43,-0.289 6.43,-2.519 0,-1.691 -1.67,-2.531 -5.03,-2.531 -2.81,0 -5.04,0 -8.4,-0.84 -7.84,-2.238 -10.09,-8.129 -10.36,-23.809 L 3593.75,602 c 0,-6.16 -1.11,-8.68 -3.63,-8.68 -3.09,0 -6.45,3.078 -9.52,6.16 -17.65,16.809 -53.49,53.508 -82.6,82.372 -30.52,30.25 -61.6,64.429 -66.64,69.75 h -0.84 l 3.07,-116.821"
         style="fill:#193958;fill-opacity:1;fill-rule:nonzero;stroke:none"
         id="path30" />
      <path
         d="m 3725.63,792.781 -41.72,-1.121 c -16.23,-0.558 -22.95,-1.949 -27.15,-8.121 -2.81,-4.199 -4.21,-7.559 -4.77,-9.809 -0.56,-2.242 -1.4,-3.359 -3.08,-3.359 -1.96,0 -2.52,1.41 -2.52,4.481 0,4.488 5.32,29.98 5.88,32.218 0.84,3.641 1.68,5.321 3.36,5.321 2.24,0 5.03,-2.801 12.05,-3.36 8.11,-0.84 18.75,-1.39 27.98,-1.39 h 110.88 c 8.97,0 15.13,0.839 19.33,1.39 4.2,0.84 6.43,1.399 7.56,1.399 1.96,0 2.23,-1.68 2.23,-5.879 0,-5.879 -0.84,-25.211 -0.84,-32.5 -0.27,-2.801 -0.84,-4.481 -2.52,-4.481 -2.23,0 -2.79,1.399 -3.07,5.602 l -0.28,3.09 c -0.56,7.277 -8.12,15.129 -33.04,15.679 l -35.28,0.84 V 677.922 c 0,-25.774 0,-47.902 1.4,-59.953 0.84,-7.84 2.52,-14.008 10.92,-15.129 3.93,-0.551 10.08,-1.121 14.28,-1.121 3.08,0 4.48,-0.84 4.48,-2.239 0,-1.96 -2.24,-2.8 -5.32,-2.8 -18.48,0 -36.12,0.84 -43.96,0.84 -6.43,0 -24.08,-0.84 -35.28,-0.84 -3.63,0 -5.6,0.84 -5.6,2.8 0,1.399 1.13,2.239 4.49,2.239 4.19,0 7.55,0.57 10.07,1.121 5.6,1.121 7.28,7.289 8.12,15.41 1.4,11.77 1.4,33.898 1.4,59.672 v 114.859"
         style="fill:#193958;fill-opacity:1;fill-rule:nonzero;stroke:none"
         id="path32" />
      <path
         d="m 3864.51,636.738 c 2.52,0 3.36,-1.398 6.99,-7 4.77,-7.008 6.18,-11.488 6.18,-14.566 0,-2.813 -1.68,-8.973 -3.66,-13.453 -3.63,-8.399 -12.59,-26.328 -22.11,-37.258 -1.96,-1.68 -3.08,-3.359 -4.76,-3.359 -0.84,0 -2.24,1.398 -2.24,2.808 0,1.391 1.68,3.36 2.24,4.75 5.88,10.09 8.12,17.93 8.12,24.379 0,15.961 -11.75,20.449 -11.75,24.371 0,9.809 12.59,19.328 20.99,19.328"
         style="fill:#193958;fill-opacity:1;fill-rule:nonzero;stroke:none"
         id="path34" />
      <path
         d="m 4051.83,634.781 c 0.55,-21.851 4.2,-29.14 9.79,-31.101 4.77,-1.68 10.08,-1.961 14.57,-1.961 3.07,0 4.75,-0.559 4.75,-2.239 0,-2.242 -2.52,-2.8 -6.44,-2.8 -18.19,0 -29.4,0.84 -34.71,0.84 -2.52,0 -15.69,-0.84 -30.24,-0.84 -3.65,0 -6.17,0.281 -6.17,2.8 0,1.68 1.68,2.239 4.49,2.239 3.63,0 8.67,0.281 12.6,1.402 7.27,2.238 8.4,10.367 8.67,34.738 l 2.52,165.012 c 0,5.609 0.84,9.52 3.64,9.52 3.08,0 5.6,-3.641 10.36,-8.68 3.36,-3.641 45.92,-48.473 86.8,-89.09 19.04,-19.039 56.84,-59.391 61.6,-63.871 h 1.41 l -2.8,125.781 c -0.29,17.09 -2.81,22.418 -9.53,25.219 -4.19,1.68 -10.91,1.68 -14.84,1.68 -3.36,0 -4.47,0.84 -4.47,2.531 0,2.23 3.07,2.519 7.27,2.519 14.56,0 28,-0.839 33.88,-0.839 3.09,0 13.72,0.839 27.44,0.839 3.64,0 6.45,-0.289 6.45,-2.519 0,-1.691 -1.68,-2.531 -5.04,-2.531 -2.8,0 -5.04,0 -8.4,-0.84 -7.85,-2.238 -10.09,-8.129 -10.37,-23.809 L 4211.98,602 c 0,-6.16 -1.12,-8.68 -3.64,-8.68 -3.08,0 -6.44,3.078 -9.51,6.16 -17.65,16.809 -53.49,53.508 -82.6,82.372 -30.53,30.25 -61.6,64.429 -66.64,69.75 h -0.84 l 3.08,-116.821"
         style="fill:#193958;fill-opacity:1;fill-rule:nonzero;stroke:none"
         id="path36" />
      <path
         d="m 4308.03,623.289 c -27.44,24.09 -34.73,55.473 -34.73,82.652 0,19.047 5.88,52.11 32.76,76.758 20.17,18.492 46.77,29.692 88.49,29.692 17.35,0 27.72,-1.11 40.6,-2.801 10.63,-1.399 19.6,-3.918 27.99,-4.758 3.08,-0.281 4.2,-1.684 4.2,-3.371 0,-2.231 -0.84,-5.59 -1.39,-15.402 -0.57,-9.239 -0.29,-24.649 -0.84,-30.258 -0.29,-4.199 -0.84,-6.43 -3.36,-6.43 -2.25,0 -2.8,2.231 -2.8,6.16 -0.29,8.68 -3.93,18.481 -10.92,25.77 -9.24,9.801 -31.09,17.371 -56.84,17.371 -24.36,0 -40.33,-6.172 -52.65,-17.371 -20.43,-18.77 -25.76,-45.379 -25.76,-72.563 0,-66.679 50.69,-99.738 88.21,-99.738 24.91,0 40.04,2.809 51.24,15.699 4.75,5.321 8.4,13.442 9.52,18.481 0.84,4.492 1.39,5.609 3.63,5.609 1.96,0 2.52,-1.957 2.52,-4.199 0,-3.371 -3.36,-27.738 -6.15,-37.27 -1.41,-4.761 -2.53,-6.16 -7.29,-8.121 -11.2,-4.48 -32.48,-6.449 -50.4,-6.449 -38.36,0 -70.55,8.41 -96.03,30.539"
         style="fill:#193958;fill-opacity:1;fill-rule:nonzero;stroke:none"
         id="path38" />
      <path
         d="m 1778.05,484.629 v 13.293 h 74.85 v -13.293 h -30.4 V 361.52 h -13.68 v 123.109 h -30.77"
         style="fill:#193958;fill-opacity:1;fill-rule:nonzero;stroke:none"
         id="path40" />
      <path
         d="m 1886.72,497.922 h 13.68 v -57.184 h 69.53 v 57.184 h 13.67 V 361.52 h -13.67 v 65.921 H 1900.4 V 361.52 h -13.68 v 136.402"
         style="fill:#193958;fill-opacity:1;fill-rule:nonzero;stroke:none"
         id="path42" />
      <path
         d="m 2030.93,497.922 h 77.89 v -13.293 h -64.21 v -42.75 h 64.21 v -13.297 h -64.21 V 374.82 h 64.21 v -13.3 h -77.89 v 136.402"
         style="fill:#193958;fill-opacity:1;fill-rule:nonzero;stroke:none"
         id="path44" />
      <path
         d="m 2329.97,464.488 c -11.97,15.762 -29.06,23.563 -48.63,23.563 -32.3,0 -59.46,-23.942 -59.46,-58.699 0,-33.821 25.83,-58.524 60.22,-58.524 19,0 35.15,7.793 47.87,22.613 l 10.83,-8.171 c -14.06,-17.668 -34.76,-26.981 -59.65,-26.981 -45.59,0 -73.52,32.109 -73.52,72.191 0,40.282 31.15,70.872 73.52,70.872 25.08,0 46.16,-9.891 59.65,-28.692 l -10.83,-8.172"
         style="fill:#193958;fill-opacity:1;fill-rule:nonzero;stroke:none"
         id="path46" />
      <path
         d="m 2382.62,497.922 h 77.88 v -13.293 h -64.21 v -42.75 h 64.21 v -13.297 h -64.21 V 374.82 h 64.21 v -13.3 h -77.88 v 136.402"
         style="fill:#193958;fill-opacity:1;fill-rule:nonzero;stroke:none"
         id="path48" />
      <path
         d="m 2498.9,361.52 v 136.402 h 2.84 l 90.43,-104.481 v 104.481 h 13.68 V 361.52 h -3.04 l -90.24,103.16 V 361.52 h -13.67"
         style="fill:#193958;fill-opacity:1;fill-rule:nonzero;stroke:none"
         id="path50" />
      <path
         d="m 2639.88,484.629 v 13.293 h 74.85 v -13.293 h -30.39 V 361.52 h -13.69 v 123.109 h -30.77"
         style="fill:#193958;fill-opacity:1;fill-rule:nonzero;stroke:none"
         id="path52" />
      <path
         d="m 2756.35,497.922 h 77.88 v -13.293 h -64.21 v -42.75 h 64.21 v -13.297 h -64.21 V 374.82 h 64.21 v -13.3 h -77.88 v 136.402"
         style="fill:#193958;fill-opacity:1;fill-rule:nonzero;stroke:none"
         id="path54" />
      <path
         d="M 2886.68,484.629 V 438.27 c 7.6,0 15.39,-0.18 22.62,-0.18 11.77,0 20.89,1.129 26.77,5.879 4.95,3.992 8.17,10.64 8.17,17.672 0,13.3 -9.11,22.988 -29.63,22.988 z M 2873,497.922 h 31.36 c 14.23,0 25.07,-0.953 31.71,-3.422 14.07,-5.32 22.43,-17.469 22.43,-32.859 0,-6.852 -0.96,-10.832 -4,-16.911 -7.02,-14.25 -20.71,-19.761 -43.31,-19.761 l 49.2,-63.449 h -16.9 l -49.02,63.449 h -7.79 V 361.52 H 2873 v 136.402"
         style="fill:#193958;fill-opacity:1;fill-rule:nonzero;stroke:none"
         id="path56" />
      <path
         d="m 3077.06,429.148 c 0,-33.617 26.59,-57.738 57.37,-57.738 31.92,0 57.94,24.309 57.94,58.5 0,34.578 -27.73,58.141 -57.94,58.141 -30.02,0 -57.37,-23.942 -57.37,-58.903 z m 129.56,0.582 c 0,-40.089 -31.35,-71.621 -71.82,-71.621 -41.97,0 -71.99,32.86 -71.99,71.039 0,40.653 31.54,72.204 70.86,72.204 41.41,0 72.95,-30.973 72.95,-71.622"
         style="fill:#193958;fill-opacity:1;fill-rule:nonzero;stroke:none"
         id="path58" />
      <path
         d="m 3248.06,497.922 h 68.39 v -13.293 h -54.71 v -42.75 h 54.71 v -13.297 h -54.71 V 361.52 h -13.68 v 136.402"
         style="fill:#193958;fill-opacity:1;fill-rule:nonzero;stroke:none"
         id="path60" />
      <path
         d="m 3419.43,497.922 h 13.68 V 361.52 h -13.68 v 136.402"
         style="fill:#193958;fill-opacity:1;fill-rule:nonzero;stroke:none"
         id="path62" />
      <path
         d="m 3465.03,484.629 v 13.293 h 74.85 v -13.293 h -30.39 V 361.52 h -13.69 v 123.109 h -30.77"
         style="fill:#193958;fill-opacity:1;fill-rule:nonzero;stroke:none"
         id="path64" />
      <path
         d="m 3694.73,469.039 -23.56,-49.379 h 46.74 z m 1.71,28.883 63.64,-136.402 h -14.63 l -21.47,44.839 h -58.88 l -21.29,-44.839 h -15.2 l 64.59,136.402 h 3.24"
         style="fill:#193958;fill-opacity:1;fill-rule:nonzero;stroke:none"
         id="path66" />
      <path
         d="m 3795.63,497.922 h 13.67 V 374.82 h 52.44 v -13.3 h -66.11 v 136.402"
         style="fill:#193958;fill-opacity:1;fill-rule:nonzero;stroke:none"
         id="path68" />
      <path
         d="m 3897.84,497.922 h 13.68 V 374.82 h 52.43 v -13.3 h -66.11 v 136.402"
         style="fill:#193958;fill-opacity:1;fill-rule:nonzero;stroke:none"
         id="path70" />
      <path
         d="m 3488.1,1122.89 c -4.29,5.61 -8.03,9.68 -14.53,9.68 -6.81,0 -10.66,-4.85 -10.66,-10.01 0,-4.29 2.53,-8.8 7.04,-12.22 14.84,-10.99 25.74,-18.58 25.74,-31.35 0,-11.11 -9.35,-21.24 -22.22,-21.24 -10.89,0 -18.04,6.06 -23.88,16.73 l 6.72,4.07 c 4.73,-8.69 10.45,-13.09 16.5,-13.09 8.24,0 14.63,6.05 14.63,13.42 0,8.69 -8.14,13.64 -26.07,28.16 -3.74,2.98 -6.71,9.25 -6.71,15.19 0,10.89 8.47,18.48 19.14,18.48 9.68,0 15.51,-5.83 20.68,-12.87 l -6.38,-4.95"
         style="fill:#193958;fill-opacity:1;fill-rule:nonzero;stroke:none"
         id="path72" />
      <path
         d="m 3508.99,1059.74 11.22,78.99 h 1.32 l 32.12,-64.79 31.8,64.79 h 1.32 l 11.22,-78.99 h -7.7 l -7.7,56.55 -27.94,-56.55 h -1.98 l -28.38,56.99 -7.6,-56.99 h -7.7"
         style="fill:#193958;fill-opacity:1;fill-rule:nonzero;stroke:none"
         id="path74" />
    </g>
  </g>
</svg>
